<?xml version="1.0" standalone="no"?>
<!DOCTYPE svg PUBLIC "-//W3C//DTD SVG 20010904//EN"
 "http://www.w3.org/TR/2001/REC-SVG-20010904/DTD/svg10.dtd">
<svg version="1.0" xmlns="http://www.w3.org/2000/svg"
 width="555.000000pt" height="710.000000pt" viewBox="0 0 555.000000 710.000000"
 preserveAspectRatio="xMidYMid meet">

<g transform="translate(0.000000,710.000000) scale(0.100000,-0.100000)"
fill="#000000" stroke="none">
<path d="M2721 7040 c-23 -29 -62 -94 -88 -146 -43 -87 -47 -102 -51 -183 -6
-126 24 -220 115 -358 25 -36 43 -53 57 -53 34 0 150 131 194 218 35 73 37 80
37 177 0 96 -2 105 -37 176 -39 80 -143 212 -170 217 -10 2 -32 -17 -57 -48z"/>
<path d="M1551 6785 c-114 -124 -226 -364 -290 -625 -33 -136 -61 -304 -61
-373 0 -46 -27 -84 -52 -74 -7 2 -89 57 -183 122 -508 352 -565 384 -565 320
0 -25 246 -267 728 -714 289 -269 295 -281 148 -295 -185 -18 -409 -79 -572
-155 -88 -42 -107 -62 -81 -88 13 -14 25 -14 113 1 318 52 642 48 834 -10 128
-38 221 -109 379 -287 356 -403 615 -870 961 -1737 119 -297 123 -317 124
-540 1 -154 -3 -204 -21 -295 -24 -119 -67 -254 -102 -322 -11 -23 -21 -48
-21 -55 0 -7 49 -96 109 -198 129 -218 136 -223 188 -125 88 164 178 443 209
645 21 138 21 375 0 505 -84 518 -401 1162 -931 1890 -56 77 -107 149 -113
160 -8 16 -3 50 23 150 61 243 130 415 241 601 45 75 55 100 47 113 -23 37
-45 24 -167 -101 -134 -136 -227 -260 -290 -386 -55 -111 -71 -115 -140 -36
-170 195 -331 352 -507 495 -54 43 -100 87 -103 96 -14 45 -27 340 -21 458 17
328 72 579 177 807 48 105 14 135 -61 53z"/>
<path d="M3937 6823 c-14 -13 -6 -45 24 -104 72 -143 136 -397 160 -634 13
-129 7 -557 -8 -609 -7 -22 -39 -51 -129 -114 -73 -52 -159 -126 -221 -190
-123 -125 -138 -128 -167 -35 -54 175 -193 405 -378 625 -37 43 -38 48 -44
145 -13 196 28 389 122 580 58 118 63 146 28 151 -15 2 -39 -16 -84 -65 -111
-121 -186 -245 -250 -415 -21 -56 -40 -90 -51 -93 -12 -4 -49 16 -111 61 -123
88 -225 139 -244 123 -27 -23 -13 -46 77 -125 447 -388 769 -927 769 -1285 l0
-58 -123 -168 c-136 -184 -370 -516 -387 -549 -10 -17 -2 -35 51 -123 63 -102
85 -126 106 -113 6 4 45 68 88 142 159 278 327 507 521 709 146 153 221 198
393 237 151 35 517 29 760 -13 89 -15 95 -14 107 2 26 35 1 54 -164 121 -115
47 -322 99 -452 115 -102 12 -140 27 -140 54 0 7 60 68 133 136 578 539 849
804 845 825 -2 9 -10 22 -20 27 -17 11 -113 -49 -515 -327 -219 -150 -218
-149 -241 -137 -15 8 -20 32 -30 127 -38 363 -169 728 -333 924 -45 55 -74 71
-92 53z"/>
<path d="M504 6726 c-8 -22 24 -180 51 -252 35 -92 68 -145 129 -202 80 -76
191 -127 333 -152 97 -18 103 -12 103 94 -1 161 -44 289 -129 379 -62 66 -126
101 -227 127 -95 25 -252 28 -260 6z"/>
<path d="M4833 6699 c-218 -36 -342 -164 -373 -384 -22 -156 -9 -200 53 -189
301 53 440 180 495 454 25 123 21 130 -61 129 -34 -1 -85 -5 -114 -10z"/>
<path d="M2035 6533 c-146 -17 -232 -51 -306 -120 -85 -79 -124 -177 -135
-338 -9 -129 -4 -134 112 -112 56 11 119 32 171 57 160 79 234 189 276 413 20
107 10 116 -118 100z"/>
<path d="M3416 6227 c-20 -14 -20 -16 2 -118 56 -266 178 -387 447 -444 96
-20 105 -13 105 78 -1 204 -80 361 -217 431 -98 49 -299 81 -337 53z"/>
<path d="M2055 5874 c-30 -31 -97 -137 -125 -198 -69 -152 -59 -294 32 -455
47 -84 78 -121 101 -121 26 0 115 91 166 170 85 131 92 264 22 406 -37 73
-149 214 -171 214 -5 0 -16 -7 -25 -16z"/>
<path d="M290 5722 c-30 -10 -77 -31 -104 -47 -66 -38 -176 -143 -176 -166 0
-23 95 -89 194 -135 135 -62 251 -65 384 -11 70 28 197 110 206 133 13 35
-107 144 -222 201 -91 45 -193 54 -282 25z"/>
<path d="M5023 5711 c-62 -21 -138 -70 -211 -136 -72 -65 -69 -84 23 -147 171
-117 338 -138 505 -65 64 28 197 115 204 133 15 38 -176 189 -276 219 -69 20
-180 19 -245 -4z"/>
<path d="M3034 4996 c-249 -65 -372 -196 -413 -441 -24 -141 -28 -125 32 -125
205 2 358 64 440 180 53 76 77 162 84 298 l6 112 -29 0 c-16 -1 -70 -12 -120
-24z"/>
<path d="M1210 4779 c-235 -30 -363 -181 -386 -454 -9 -107 -5 -110 107 -90
273 47 401 161 465 412 13 53 22 104 19 113 -9 29 -80 35 -205 19z"/>
<path d="M4149 4763 c-21 -56 8 -249 52 -334 71 -140 246 -226 439 -217 l65 3
-1 50 c-3 121 -65 275 -144 359 -77 81 -208 142 -347 161 -51 7 -53 6 -64 -22z"/>
<path d="M1850 4197 c-361 -163 -694 -448 -919 -788 -80 -120 -173 -297 -215
-409 -38 -102 -41 -100 184 -100 l189 0 45 94 c80 167 195 326 341 472 188
189 349 301 569 396 60 26 113 54 118 62 10 17 -184 316 -204 316 -7 0 -56
-19 -108 -43z"/>
<path d="M3548 4223 c-37 -43 -188 -272 -188 -286 0 -19 15 -30 75 -52 90 -32
240 -112 346 -184 261 -175 460 -400 609 -689 l55 -107 186 -3 c225 -3 223 -4
189 91 -33 92 -134 290 -197 387 -174 267 -397 492 -658 663 -94 61 -360 197
-386 197 -9 0 -23 -8 -31 -17z"/>
<path d="M2414 3213 c-246 -538 -307 -1009 -189 -1473 71 -281 183 -531 486
-1086 83 -153 192 -356 241 -451 49 -94 95 -176 102 -182 25 -21 296 39 472
105 298 111 542 265 773 489 344 333 558 740 642 1220 27 160 34 509 10 538
-12 16 -70 17 -668 17 -432 0 -661 -4 -674 -10 -17 -10 -19 -23 -19 -160 0
-81 3 -155 6 -164 5 -14 56 -16 471 -16 301 0 471 -4 484 -10 25 -14 25 -62
-2 -193 -103 -513 -428 -964 -877 -1219 -126 -72 -260 -130 -282 -123 -26 8
-258 346 -405 590 -449 746 -567 1318 -370 1786 19 46 35 90 35 99 -1 8 -36
83 -78 165 -97 188 -106 193 -158 78z"/>
<path d="M585 2376 c-18 -13 -19 -28 -18 -187 0 -104 7 -222 17 -294 118 -834
692 -1525 1486 -1789 134 -45 371 -99 393 -90 14 5 198 341 200 364 1 17 -217
392 -238 410 -8 7 -21 10 -28 7 -7 -2 -55 -73 -107 -157 -52 -84 -101 -155
-108 -158 -20 -7 -82 16 -211 79 -446 217 -776 597 -932 1071 -34 102 -79 310
-79 357 1 47 -10 46 497 51 l478 5 3 159 c2 108 -1 163 -9 172 -17 21 -1316
21 -1344 0z"/>
</g>
</svg>
